<svg version="1.1" xmlns="http://www.w3.org/2000/svg" xmlns:xlink="http://www.w3.org/1999/xlink" x="0px" y="0px"
	 viewBox="1845.3 648.4 1001.2 147.3" enable-background="new 1845.3 648.4 1001.2 147.3" xml:space="preserve">

	<defs>
		<clipPath id="clip">
			<path d="M2837.9,703.8c-9.3,0.3-18.7,0.5-28,0.8c-6.3,0-12.7-0.1-19-0.1c-2.7,0-5.3,0-8,0c-1.6,0.1-3.2,0.4-4.7,0.3
				c-15.4-0.5-30.8-1-46.2-1.6c-2.1-0.2-4.1-0.3-6.2-0.6c-22.3-2.6-41.7,2.6-58.6,18.4c-8.7,8.2-19.6,14.3-29.9,20.7
				c-6.6,4.1-8.6,2.2-8.4-5.6c0.5-17.7,10.3-30.2,23.4-40.3c7.5-5.7,12.5-13.3,18.4-20.2c1.3-1.5,1.6-5.1,0.7-6.8
				c-0.9-1.7-4.3-3.6-6-3.2c-5.2,1.4-11.2,2.7-15,6.1c-11,10-19.5,22.3-24.5,36.3c-2.6,7.2-6.1,12.6-12.2,16.8c-1.7,1.2-3.3,2.5-5,3.7
				c-7.1,4.6-14,9.5-21.4,13.7c-6.2,3.5-8.4,2-7.8-5.2c0.5-5.7,2.1-11.3,3.6-16.8c1.6-5.9,4.9-10.4,9.6-14.7
				c9.7-9,18.6-18.9,27.8-28.5c2.5-2.6,3.6-6.1,1.1-8.7c-1.7-1.8-5.6-3.3-7.8-2.5c-5.1,1.7-10.7,3.8-14.4,7.5
				c-11.4,11.5-20.3,24.9-25.3,40.6c-0.6,1.9-1.4,4.2-2.8,5.4c-10.2,7.8-20.5,15.5-31.1,22.9c-2.9,2-6.7,3.1-10.2,3.9
				c-4.7,1.1-7.5-1.4-7.6-6.2c-0.3-7.7,4.1-13.8,11.1-17.2c4.9-2.3,9.7-5.3,13.8-8.8c3.8-3.3,2.6-7-2.3-7.8c-3.8-0.6-8-0.8-11.6,0.2
				c-9,2.4-14.2,9.6-19,17.1c-2,3-4,6.1-6.5,8.7c-6.3,6.4-12.8,12.6-19.3,18.8c-2.8,2.7-5.6,5.6-9,7.5c-2.1,1.3-5.4,2-7.5,1.2
				c-1.4-0.5-2.3-4.1-2.4-6.3c-0.5-7.9,3-14.7,6.2-21.6c2.2-4.8,4.8-9.5,6.3-14.5c1.7-6-1.1-8.7-6.9-6.5c-5.5,2-10.8,5-15.7,8.4
				c-7.7,5.4-14.9,11.6-22.3,17.3c-0.8,0.6-1.9,0.9-2.9,1.3c0.2-1,0.3-2.1,0.7-3c5.8-11.7,11.9-23.3,17.5-35.2
				c3.2-6.6,7.3-12.1,14.2-15.2c7-3.2,11.1-8.5,12.8-15.9c1-4.2,0.2-5.6-3.9-5.3c-5.9,0.5-10.4,3.9-13.8,8.4
				c-11.6,15.2-23.3,30.1-38.7,41.8c-12,9.1-23.7,18.2-37.9,23.8c-6.3,2.5-6.1,2.5-7.1-3.9c-0.6-3.6-1.9-7.1-2.9-10.6
				c-1.5-5.5-5.5-10.7-1.4-16.9c0.7-1.1-1.1-5.3-2.6-6c-1.6-0.7-5.5,0.6-6.3,2.2c-1.4,2.9-2.1,6.6-1.7,9.8c0.4,3.2,0.2,5.5-2.2,7.3
				c-7.3,5.5-13.8,12.3-23.1,14.8c-3.5,1.8-6.9,3.6-10.4,5.3c-6.4,2.9-6.4,2.9-6.5-4c-0.1-5.1-5.2-8.5-11.2-5.8
				c-7.4,3.3-14.2,8.1-21.1,12.5c-1.9,1.2-3.2,3.3-4.9,4.8c-1.7,1.6-3.5,3-5.3,4.5c0.7-2.4,1.1-4.9,2.2-7.1
				c5.1-10.8,10.2-21.6,15.5-32.3c2-4,4.9-7.2,9.4-8.5c5.8-5.5,11.8-10.9,17.3-16.7c3.7-4,7.2-8.5,9.8-13.2c3.2-5.6,1-8.7-5.3-7.9
				c-8.6,1.2-16.6,4.5-21.8,11.9c-6.8,9.8-13,20-19.2,30.2c-5,8.2-8.9,17.1-18.2,21.8c-1.8,0.9-3.1,2.8-4.8,3.9
				c-6.8,4.7-13.6,9.4-20.5,13.9c-1,0.6-2.6,0.3-3.9,0.4c0-1.3-0.5-2.7-0.1-3.8c1-2.8,2.4-5.4,3.6-8.2c2.2-4.8,4.9-9.4,6.4-14.5
				c3.1-10.7-1.2-15.1-12.4-13.5c-7.4,5.7-14.8,11.3-22.2,17c-2.9,2.3-5.7,4.7-8.6,6.9c-1,0.8-2.2,1.3-3.4,2c0.3-1.2,0.4-2.5,1-3.6
				c2.4-4.2,5-8.2,7.3-12.4c2.9-5.3,2.4-8.1-2.2-12.6c-6.7-1.9-12.2,0.9-17.2,4.9c-7.5,6.1-14.9,12.3-22.4,18.4
				c-1.9,1.5-4.1,2.7-6.1,4c0.9-2.4,1.6-4.9,2.6-7.3c2.2-5.3,4.7-10.5,6.5-15.9c1.4-4.2,1.7-9-2.3-12.1c-3.9-3.1-8.3-1.8-12.5,0.1
				c-1,0.5-2,1.1-3,1.8c-7.2,5.3-14.5,10.6-21.6,16c-2.3,1.8-4.1,4-5.8-0.7c-0.4-1.3-2.8-2.3-4.5-2.6c-13.7-2.7-25.3,1.1-34.7,11.5
				c-2.5,2.7-4.8,6-7.8,7.7c-6.8,3.8-14.2,6.7-21.3,9.9c-2.9,1.3-4.4,1.5-4-2.9c0.7-7.8-3.5-11-11-8.4c-5.3,1.9-10.5,4.7-15.2,7.9
				c-5.4,3.9-10.2,8.6-15.3,13c4.4-15,11.2-28.9,19.4-42.1c0.6-0.9,1.6-1.6,2.5-2.3c7.7-6.8,15.7-13.4,23.1-20.6
				c3.6-3.5,6.5-7.8,8.8-12.3c2.7-5.1,0.4-8.2-5.3-7.5c-8.8,1.1-16.8,4.6-21.9,11.8c-7.4,10.5-13.9,21.7-20.6,32.6
				c-3.8,6.2-7.1,12.7-14.5,15.9c-10.5,4.6-21.2,6.1-32.5,5.1c-28.6-2.5-57.2-3.8-85.8-2.4c-1.7,0.1-3.5,0.8-5.2,1.3
				c-11.6,0-23.1,0-34.7,0v1.4c11.6-0.1,23.1-0.3,34.7-0.4c1.4-0.1,2.7-0.4,4.1-0.4c29.6-1.4,59.1,0.7,88.6,2.6
				c10.7,0.7,21.2,0.1,31.1-4.9c1.4-0.7,2.9-1,4.4-1.5c-0.5,1.4-0.9,2.8-1.4,4.1c-2.2,5.3-4.6,10.6-6.5,16c-1.6,4.5-3,9.2-4,13.9
				c-0.3,1.4,0.8,4,1.9,4.5c1.5,0.7,3.8,0.2,5.6-0.3c1.2-0.4,2.2-1.6,3.2-2.6c5.1-5.6,10.3-11.2,15.3-16.9
				c5.4-6.2,12.4-10.1,19.8-13.5c1.6-0.7,3-1.2,3.3,1.5c0.7,6.3-3.9,13.8-10,16.2c-2.4,0.9-4.7,2-6.8,3.3c-2.7,1.8-3.6,7.2-1.9,10.1
				c2.1,3.5,5.4,0.8,6.5,0c5.3-3.9,10.1-8.5,15.1-12.9c1.5-1.4,2.5-3.5,4.2-4.4c8-4,16.2-7.6,24.4-11.5c2.5-1.2,3.2-0.5,2.9,2.1
				c-0.3,3-0.5,5.9,2.8,7.9c6.1,3.7,11.7,4.1,17.3-0.3c12.3-9.7,24-19.9,36.3-29.5c7.1-5.5,14.7-10.2,22.2-15.1
				c1.2-0.7,2.9-0.6,4.4-0.8c0,1.7,0.6,3.8-0.1,5.2c-2.3,4.8-5.3,9.2-7.5,13.9c-2.8,6-5.4,12.2-7.8,18.4c-1.3,3.5,0.5,6.3,3.3,8.4
				c3.4,2.5,4.8-0.8,6.8-2.5c12.1-10.3,24.2-20.6,36.4-30.8c1.2-1,2.6-1.9,4.1-2.6c0.7-0.3,1.6-0.2,2.5-0.3c0,0.9,0.3,1.8-0.1,2.5
				c-2.1,4.3-4,8.8-6.6,12.9c-3.2,5.1-4.8,10.5-4.2,16.4c0.2,2.1,1.4,4.1,2.1,6.2c2.2-0.9,4.8-1.3,6.5-2.8
				c6.1-5.5,11.8-11.6,17.9-17.2c5.5-4.9,11.2-9.6,17.1-14c1.6-1.2,4.1-1.1,6.2-1.6c-0.4,1.9-0.4,4-1.2,5.8c-1,2.5-2.6,4.9-3.9,7.3
				c-1.9,3.4-4.1,6.7-5.6,10.3c-2.1,5-0.5,13,2.6,15.5c4.6,3.6,8.1,3.4,14.9-1.3c6-4.2,11.9-8.7,17.9-12.9c2.8-2,5.8-3.9,8.7-5.9
				c-1.2,3.4-2.5,6.8-3.7,10.2c-2.4,6.7-4.9,13.4-6.9,20.2c-0.4,1.5,0.6,4.2,1.8,5.1c1.3,0.9,3.8,0.5,5.5-0.1c1.6-0.6,3-2.1,4.2-3.4
				c5.3-5.8,10-12.2,15.8-17.3c5.4-4.8,12-8.3,18.2-12.1c0.8-0.5,3.5,0.1,3.7,0.8c1.3,4-4.3,14.5-8.3,16.2c-3,1.3-6,2.4-8.8,4
				c-2.2,1.3-3.5,8.6-1.5,10c1.5,1.1,5.1,1,6.6-0.1c5.2-3.8,9.8-8.3,14.7-12.4c3.3-2.7,6.4-6,10.3-7.6c10.8-4.5,21.3-9.7,30.8-16.7
				c2.8-2.1,6-3.7,9-5.6c1,4,2.1,8,3,12c0.3,1.1,0.1,2.3,0.2,3.5c0.2,10.1,2.3,7.6-7.2,12.1c-4,1.9-7.9,3.8-11.7,6.1
				c-6.1,3.7-10.6,8.9-13.1,15.6c-2.5,6.5-0.2,9.9,7.2,11.4c0,0-0.1-0.1-0.1-0.1c2.9,0.2,6.1,1.3,8.7,0.5c16-5.1,23.1-17.5,25.7-32.9
				c0.7-4,2-6.2,5.5-7.8c5-2.2,10.3-4.1,14.8-7.1c10.4-6.8,20.3-14.2,30.5-21.4c1.9-1.4,3.9-2.7,5.8-4c-1.1,2.2-2.3,4.3-3.3,6.5
				c-3.3,7-6.8,14-9.9,21.2c-1.2,2.8-1.3,5.9,2,7.9c2.9,1.7,5.4,4,9.1,0.5c5-4.7,10.6-8.7,16-12.9c7.1-5.5,14.2-10.9,21.4-16.2
				c0.8-0.6,2.1-0.4,3.2-0.6c-0.2,1-0.3,2.1-0.7,2.9c-2.2,4-5.1,7.8-6.7,12c-2.3,6.2-4.4,12.6-5.3,19.2c-0.8,5.7,1.1,11,7.5,13.3
				c5.8,2.1,11.2,2.7,15.9-2.4c1.4-1.5,3.1-2.8,4.5-4.3c6.6-6.8,13.1-13.6,19.7-20.4c0.8-0.8,1.9-1.2,2.8-1.8c0.2,1,0.6,2,0.7,3
				c0.3,6,3.3,9.7,8.9,12c6.1,2.5,12.2,2.1,17.3-1.2c10.6-6.8,20.7-14.4,31-21.6c0.7-0.5,1.4-1,2.1-1.4c0.2,0.8,0.4,1.6,0.5,2.5
				c0,2.1-0.3,4.2-0.1,6.2c0.3,3.2,0,6.7,1.4,9.3c3,5.7,11.3,7.1,17.5,3c9.2-6.1,18-12.8,27-19.2c1.1-0.8,2.4-1.4,3.6-2.1
				c0,1.3,0,2.5,0,3.8c0,2.1,0.1,4.2-0.1,6.2c-1.4,13.3,11.2,16.6,19.4,11c11.3-7.8,22.1-16.4,33.4-24.3c6.6-4.6,13.3-9.1,20.5-12.5
				c9.5-4.5,19.9-3.3,30.1-2.9c0.9,0.3,1.7,0.8,2.5,0.9c22.1,0.9,44.2,1.9,66.3,2.3c7.8,0.2,15.6-1.1,23.4-1.7c7.7,0,15.5,0,23.2,0.1
				c2.3-0.1,4.6-0.2,7-0.3v-2.8C2843.2,703.2,2840.6,703.6,2837.9,703.8L2837.9,703.8z M2641.7,699.5c3.8-6.5,7.5-13,11.6-19.3
				c2.6-4,5.6-7.7,9-11c1.2-1.2,4-0.7,6-0.9c0,2.1,0.9,5-0.2,6.1c-8.3,9.2-16.9,18-25.4,26.9c-0.1,0.1-0.4,0.2-0.6,0.3
				c-0.3-0.1-0.7-0.1-1-0.2C2641.2,700.8,2641.3,700,2641.7,699.5L2641.7,699.5z M2592.1,699.6c6.4-10.5,11-22.3,20.8-30.4
				c1.3-1.1,4-0.6,6.1-0.8c-0.1,2.2,0.6,5.1-0.5,6.3c-8,8.8-16.4,17.4-24.7,26c-0.3,0.3-0.8,0.4-1.4,0.8
				C2592.2,700.7,2591.9,700,2592.1,699.6L2592.1,699.6z M2540.5,707.8c1-0.7,3.3,0.4,5,0.6c-0.4,1.6-0.2,4.2-1.2,4.8
				c-4.8,2.8-9.9,5.1-15,7.6C2530.4,714.3,2535.6,711.1,2540.5,707.8L2540.5,707.8z M2463,681.2c3.6-4.7,7.3-9.4,11-14
				c0.3-0.3,1.5,0.1,2.1,0.2c0.1,5.4-7.8,14.8-12.3,15.3C2463.6,682.8,2462.8,681.4,2463,681.2L2463,681.2z M2303.1,698.2
				c6.1-11.1,10.2-23.7,21.9-30.9c0.4-0.2,0.8-0.4,1.3-0.4c2.8-0.3,4.7,0.6,3.8,3.8c-0.5,1.7-1.3,3.6-2.5,4.8
				c-7.4,7.8-15,15.4-22.5,23c-0.3,0.3-0.7,0.6-1.5,1.1C2303.4,699,2303,698.4,2303.1,698.2L2303.1,698.2z M2037,698
				c5-8.4,9.9-16.9,15.4-25c1.9-2.8,5.5-4.5,9.4-7.6c1.1,2.2,2.3,3.6,2.1,4.7c-0.3,1.9-1.2,4.1-2.6,5.5c-7.4,7.8-15.1,15.4-22.7,23
				c-0.5,0.5-1.1,0.8-1.7,1.2C2037,699.2,2036.8,698.4,2037,698L2037,698z M2011.7,750.6c0.3-0.1,0.5-0.3,0.8-0.4
				c-0.1,0.3-0.1,0.6-0.2,0.9C2012.2,750.9,2011.9,750.7,2011.7,750.6L2011.7,750.6z M2031.1,762.1c-0.9-1.9-1.6-2.7-1.6-3.5
				c-0.1-2.4,5.2-7.4,7.8-7.5c0.4,0,1.2,0.9,1.2,0.9C2036.3,755.1,2034.1,758.2,2031.1,762.1L2031.1,762.1z M2119.7,722.7
				c-6.2,7.9-14,13.9-23,18.2c-1.5,0.7-3.4,0.4-5.1,0.5c0-1.5-0.4-3.1,0.1-4.5c3.2-9.7,9-17.4,17.6-22.8c1.5-0.9,3.3-1.5,5.8-2.5
				c2.5,1.6,5.5,2.8,7.4,5.1C2123,717.3,2121,720.9,2119.7,722.7L2119.7,722.7z M2297.5,760.4c-0.1,0.1-1.4-0.6-1.6-1.1
				c-0.7-2.7,4.2-8.1,7.1-7.8c0.4,0,0.8,0.6,1.8,1.3C2302.2,755.5,2299.9,758,2297.5,760.4L2297.5,760.4z M2343.3,780.5
				c-1.9-2.5-5.6-5.7-4.9-7.2c2.1-5.4,4.9-11.2,9.1-14.9c5.1-4.4,11.8-6.8,18-9.9c0.5-0.3,2.5,0.6,2.5,1.2
				C2370.1,762.6,2356.9,779,2343.3,780.5L2343.3,780.5z M2370.1,706.3c-0.6-0.8-1.6-1.6-1.6-2.4c0-0.8,1-1.6,1.6-2.3
				c0.5,0.6,1,1.2,1.6,1.8C2371.1,704.5,2370.6,705.4,2370.1,706.3L2370.1,706.3z"/>
			</clipPath>
		</defs>

		<path id="stroke" clip-path="url(#clip)" stroke-width="18" fill="none" stroke="#000" 
              d="M1845.4,730.4c23.4-1.2,46.9-1.8,70.3-1.7
			c17.7,0.1,35.1,1.4,52.7,2.6c12.9,0.9,26.5,0.3,38-5.7c5.7-3,10.6-7.2,15.5-11.4c7.8-6.7,15.7-13.4,23.5-20.1
			c7-6,14.2-12.1,19.1-20c1.3-2.1,2.5-4.9,1.1-7.1c-1.3-1.9-4-2.2-6.3-1.7c-6.3,1.3-11,6.6-14.8,11.9c-4.8,6.7-8.9,14-12.9,21.1
			c-11.1,19.6-22.4,39.4-28.9,61.1c15.2-8.9,25.4-26.8,42.7-30.1c1-0.2,2.3-0.3,3,0.4c0.5,0.5,0.7,1.2,0.8,1.9c1,5.7-0.8,11.7-4,16.7
			s-7.4,9-11.6,13c-0.8,0.8-1.7,1.6-2.9,1.7c-2,0.1-3.4-2.2-3.3-4.2c0.3-5,5.7-7.9,10.3-9.7c7.8-3.1,15.6-6.2,23.4-9.3
			c11-4.4,22.1-8.9,31.2-16.4c5.8-4.8,11.2-11.1,18.7-12.3c5.2-0.8,10.7,1.1,14.1,5c-2.3-3.8-7.1-5.4-11.5-5.1
			c-4.4,0.3-8.5,2.3-12.3,4.4c-4.3,2.4-8.5,5.1-11.7,8.9c-3.1,3.8-5.1,8.8-4.2,13.7c0.3,1.8,1.1,3.7,2.6,4.8
			c4.3,3.4,10.4-0.7,13.9-3.4c5.8-4.4,11.5-8.9,17.3-13.3c11.3-8.7,22.6-17.4,33.8-26.1c2.3-1.7,4.6-3.5,7.4-4.1
			c2.8-0.6,6.1,0.4,7.4,2.9c1.2,2.5,0.1,5.4-0.9,7.9c-2.3,5.3-4.5,10.6-6.8,15.9c-2.4,5.6-5.3,10.5-6.5,16.5
			c12-7.6,23.4-16.2,34-25.7c4-3.6,8.4-7.5,13.7-7.9c1.7-0.1,3.6,0.3,4.6,1.7c0.8,1.3,0.6,3,0.2,4.5c-2.7,10.1-10,18.5-11.5,28.9
			c11.5-7.2,22.1-16,32.2-25c4.8-4.3,10.6-9.1,16.8-7.5c0.4,0.1,0.9,0.3,1.2,0.7c0.3,0.4,0.1,1,0,1.5c-3.4,11.7-11.3,21.6-11,34.3
			c0,1.7,0.4,3.7,1.9,4.3c1.2,0.5,2.6,0,3.7-0.5c32.4-14.6,59.6-42,84.5-66.6c3.6-3.6,7.4-7.7,7.4-12.8c0-0.8-0.1-1.7-0.7-2.3
			c-0.4-0.5-1.1-0.8-1.8-1c-3.7-1.1-7.7,0.2-10.8,2.4c-3.1,2.3-5.4,5.4-7.5,8.6c-17.5,25.3-31.8,52.8-42.3,81.7
			c7.1-1.1,12.1-7.2,17.2-12.3c6.7-6.7,14.7-12,23.3-15.7c1.2-0.5,2.5-1,3.8-0.8c1.5,0.3,2.6,1.6,3.3,2.9c1.4,3,1,6.6-0.4,9.6
			c-1.4,3-3.6,5.6-5.7,8c-2.6,3-5.2,6-7.8,9.1c-1.2,1.4-2.5,2.8-4.3,2.9c-3.3,0.2-4.9-4.5-3.2-7.3c1.7-2.8,5-4,8.1-5.1
			c16-5.7,31.5-12.8,46.3-21.2c10-5.7,20.4-13,23.6-24.1c0.2-0.7,0.4-1.4,0.2-2.1c-0.5-2.5-4.7-2.3-6-0.1s-0.7,5-0.1,7.5
			c3.5,13.8,8.2,27.2,5.9,41.7c-1.9,11.5-8.6,22.7-19.2,27.6c-4.5,2.1-10.7,2.6-13.8-1.2c-3.1-3.7-1.6-9.4,1-13.4
			c7.5-11.2,21.6-15.4,34.1-20.6c15.9-6.7,30.5-16.7,44.8-26.2c14.5-9.7,27.1-21.9,41.7-31.4c7.6-4.9,16.4-10,17.3-20
			c0.1-0.8,0-1.8-0.6-2.3c-0.6-0.5-1.5-0.4-2.3-0.1c-4.5,1.6-7.4,6.8-10.2,10.5c-3.9,5.1-7.7,10.3-11.5,15.6
			c-6.9,9.6-13.5,19.2-20.3,28.8c-3.7,5.3-6.9,11.4-6.8,17.8c0,1.3,0.3,2.9,1.5,3.5c0.9,0.4,1.9,0.2,2.8-0.1
			c9-2.8,15.8-9.6,22.8-15.6c5.7-4.9,12.4-10.5,19.8-12.2c1.4-0.3,3.2-0.3,3.7,1c0.2,0.6,0.1,1.2,0,1.8
			c-3.2,13.6-13.2,25.7-12.5,39.7c0.1,1.3,0.2,2.7,1,3.8c0.7,0.9,1.8,1.5,2.8,2c2.8,1.4,6,2.8,8.8,1.5c1-0.5,1.8-1.2,2.7-2
			c7-6.6,14.3-12.8,21.3-19.5c6.2-5.8,10.7-10.9,18.7-14.2c5.1-2.1,10.2-4.2,15.2-6.3c5.1-2.1,10.7-4.7,12.8-9.8
			c0.2-0.5,0.3-1,0.2-1.4c-0.2-0.5-0.7-0.8-1.2-1c-3.3-1.5-7-3-10.4-1.9c-2.5,0.8-4.4,2.8-6.2,4.8c-4,4.5-8.1,9.1-10.6,14.5
			c-2.7,5.8-4.4,16,1.4,20.7c1.3,1.1,3,1.6,4.7,1.9c5.7,0.8,11.4-1.9,16.1-5.3c13.6-9.8,28.2-18.5,40.9-29.4
			c12.7-10.8,23.7-23.4,34.6-36c2.1-2.4,4.3-5.7,2.7-8.4c-1.8-3.1-6.5-2.1-9.7-0.3c-10,5.6-15.8,16.1-21.6,25.7
			c-6.1,10.2-11.3,21.1-13.4,32.8c-0.9,4.8-1.2,9.9,0.5,14.5c0.4,1.1,0.9,2.1,1.8,2.8c0.7,0.5,1.5,0.8,2.3,1
			c4.7,0.9,9.2-1.8,13.2-4.4c25.8-17,49.8-36.6,70.7-59.3c2.6-2.9,5.3-6,6.1-9.8c0.1-0.7,0.2-1.4,0-2c-0.3-0.8-1-1.3-1.7-1.7
			c-2.5-1.4-5.7-1.2-8.4,0s-4.8,3.2-6.8,5.2c-8.4,8.8-14.2,19.8-19.8,30.7c-3.9,7.6-7.7,15.4-9.9,23.7c-1.5,5.6-1.4,11.3,3.1,15.5
			c2.1,2,5.1,3.1,7.9,2.4c1.7-0.4,3.2-1.4,4.6-2.4c8.8-6.2,17.5-12.5,26.2-19c5.8-4.4,10.8-9.8,17.2-13.3c6.6-3.6,14-5.6,21.5-6.5
			c10.4-1.3,20.9-0.5,31.4,0.1c36.8,2.1,73.7,2.2,110.5,0.2"/>

<style> 
    #stroke {
      stroke-dasharray: 3000;
      stroke-dashoffset: 3000;
      stroke-width:17;
      animation: bombshell 6s ease-in-out forwards 0.5s;

      stroke-linecap: round;
      stroke-linejoin: round;
      stroke-miterlimit: 10;
    }

@keyframes bombshell {
	0% {
		stroke-dashoffset: 3000;
	}
	100% {
		stroke-dashoffset: 0;
		stroke-width:18;
	}
}
</style>
</svg>
