<?xml version="1.0" encoding="utf-8"?>
<!-- Generator: Adobe Illustrator 24.3.0, SVG Export Plug-In . SVG Version: 6.00 Build 0)  -->
<svg version="1.1" id="Layer_1" xmlns:svg="http://www.w3.org/2000/svg"
	 xmlns="http://www.w3.org/2000/svg" height="55.1" width="315.9" viewBox="0 0 315.9 55.1">
    <defs>
		<clipPath id="clip">
			<path d="M315.9,7.6c-2.8,9.2-7,17.7-12,25.9c-1.2,1.9-2.7,3.9-4.5,5.1c-3.4,2.3-6.8,0.4-6.4-3.6
			c0.4-3.6,1.6-7.1,2.5-10.6c0.3-1.1,0.7-2.2,1.1-3.7c-1.5,0.4-2.6,0.6-3.8,1c-27.3,8.2-55.2,14.1-83.3,19c-18,3.1-36.2,4-54.5,3.8
			c-5.1-0.1-8-3.5-11.6-6c-1.7-1.2-3-3.1-4.2-4.4c-5.4,2.6-10.6,5.5-16.2,7.6c-8.8,3.3-17.9,3.7-27,1.4c-6.5-1.6-11.3-5.5-13.6-12
			c-0.4-1.2-0.9-2.3-1.4-3.5c-1.3-2.6-2.7-2.8-4.8-0.7c-0.7,0.7-1.3,1.6-1.9,2.3c-4.4,5.4-8.6,11.1-13.4,16.1
			c-2.4,2.4-5.9,3.9-9.2,5.1c-8.9,3.2-18.3,4.1-27.7,4.5c-6.3,0.3-12.6,0.1-19,0.1c-0.4,0-0.8,0-1.2-0.1c-1.8-0.5-3.6-1.1-3.9-3.3
			c-0.3-2.1,1-3.7,2.8-4.3c4.3-1.3,8.8-2.5,13.2-3.2c9.4-1.6,19-2.4,28-6c5.6-2.2,10.4-5.3,14.1-10.3c3.7-5.1,7.9-9.9,12-14.7
			c1.4-1.6,3.4-3,5.3-4.1c3.9-2.3,7.8-1.9,10.9,1.3c2,2.1,3.5,4.8,5.1,7.3c1.1,1.7,1.9,3.5,3,5.2c3,4.6,7.4,6.7,12.9,6.6
			c10.6-0.2,19.5-4.4,27.2-11.4c1.8-1.6,3.3-3.5,5.2-5c1.2-1,2.7-2.1,4.2-2.5c5.1-1.5,9,2,8.4,7.3c0,0.3-0.1,0.6-0.2,1
			c-1.5,7.3,0.1,10.1,7.7,10.4c8.2,0.4,16.5,0.4,24.7-0.4c37.6-3.8,74.2-12.4,110.3-23.3c4.8-1.5,9.5-3.4,14.3-5.1
			c2.6-0.9,5-0.9,6.9,1.6C315.9,3.9,315.9,5.8,315.9,7.6L315.9,7.6z"/>
			</clipPath>
		</defs>
	<path  id="stroke" clip-path="url(#clip)" stroke-width="20" fill="none" stroke="#000" 
          d="M295.4,39.4c0,0,12.2-22.8,14.2-31.1c0,0-69.1,28.5-154.7,27.6c0,0-13.8-3-10.8-17.7c0,0-20.7,23.1-40.9,16.8
		c0,0-8.1,4.5-23.7-20.1c0,0-16.8,19.2-24.6,25.8c0,0-10.2,9.7-54.8,10.9"/>
<style> 
    #stroke {
      stroke-dasharray: 500;
      stroke-dashoffset: 500;
      animation: bombshell 3s ease-in-out forwards 0.5s;

      stroke-linecap: round;
      stroke-linejoin: round;
      stroke-miterlimit: 10;
    }

@keyframes bombshell {
	to {
    stroke-dashoffset: 0;
  }
}
</style>
</svg>