<?xml version="1.0" encoding="utf-8"?>
<!-- Generator: Adobe Illustrator 24.3.0, SVG Export Plug-In . SVG Version: 6.00 Build 0)  -->
<svg version="1.1" id="Layer_1" xmlns="http://www.w3.org/2000/svg" xmlns:xlink="http://www.w3.org/1999/xlink" x="0px" y="0px"
	 viewBox="0 0 512 276.9" style="enable-background:new 0 0 512 276.9;" xml:space="preserve">
<style type="text/css">
	.st0{fill:none;stroke:#000000;stroke-width:21;stroke-miterlimit:10;}
</style>
<path id="clip_ali" class="st0" d="M456.1,105.5c0,0-14.9-37.7-36.4,3.7c0,0,4.6,45.5,59.8,9.3c0,0-90.1,40.6-106,20 c0,0-13.5-26.1-16.2-138.4l9,123.4c0,0-49.3,27.7-142.3,22.3c0,0,61,3.4,40.8,25.8c0,0-55.7,47.2-167.1,39.5 c0,0-151.8-17.1-66.5-67.4c0,0,185.7-55.1,159.9,29.6c0,0-13.9,51.3-30,87.2"/>
<path id="clip_sm" class="st0" d="M491.4,228.1l13.1-30.9c0,0-171.1,53.9-165.3,13.5c0,0-44.8,38.3-64.2-6.8c0,0-24,38.3-78.9,36.5"/>
<line id="clip_sd" class="st0" x1="355.1" y1="262.1" x2="312.3" y2="275.8"/>
<path id="clip_rf" class="st0" d="M339.5,68.3c0,0-7.8,36.5-88.3,55.2"/>
<path id="clim_rl" class="st0" d="M209.9,92.6c0,0,37.4-58.6,64.3-34.7c0,0,6.5,31.5-76.7,36.5c0,0-40-1.9-9-29.3 c0,0-45.4,58.8-62.5,19.3l-7.9-84.4"/>
<line id="clip_rd" class="st0" x1="224" y1="4" x2="213.7" y2="24.4"/>
</svg>
